<?xml version="1.0" standalone="no"?>
<!DOCTYPE svg PUBLIC "-//W3C//DTD SVG 20010904//EN"
 "http://www.w3.org/TR/2001/REC-SVG-20010904/DTD/svg10.dtd">
<svg version="1.0" xmlns="http://www.w3.org/2000/svg"
 width="704.000000pt" height="704.000000pt" viewBox="0 0 704.000000 704.000000"
 preserveAspectRatio="xMidYMid meet">
<metadata>
Created by potrace 1.14, written by Peter Selinger 2001-2017
</metadata>
<g transform="translate(0.000000,704.000000) scale(0.100000,-0.100000)"
fill="#000000" stroke="none">
<path d="M4419 6753 c-2 -4 -74 -43 -159 -87 -85 -43 -213 -109 -285 -146 -71
-38 -174 -90 -227 -117 -53 -26 -96 -52 -94 -58 1 -5 20 -13 42 -16 72 -12
204 -51 389 -115 99 -35 310 -139 393 -195 24 -16 45 -29 48 -29 7 0 136 -101
163 -128 13 -13 25 -21 27 -19 2 2 -33 120 -77 263 -45 142 -87 279 -94 304
-8 25 -26 83 -40 130 -15 47 -34 110 -42 140 -16 54 -37 90 -44 73z"/>
<path d="M1379 6392 c0 -26 -2 -99 -4 -162 -3 -63 -7 -178 -9 -255 -3 -77 -5
-140 -6 -140 0 0 -3 -64 -5 -142 -4 -122 -2 -141 10 -137 8 4 15 10 15 15 0 5
24 34 53 65 137 149 200 202 377 315 90 58 356 203 367 200 2 0 18 6 36 14 18
8 52 20 75 27 23 7 42 16 42 20 0 3 -26 12 -57 19 -32 7 -62 14 -68 15 -5 1
-41 10 -80 19 -38 9 -77 18 -85 20 -8 2 -55 13 -105 25 -49 12 -99 23 -110 26
-55 11 -146 32 -305 70 -58 14 -113 27 -122 29 -15 3 -18 -5 -19 -43z"/>
<path d="M3098 5745 c-2 -1 -38 -6 -80 -9 -43 -3 -83 -8 -90 -11 -7 -2 -29 -6
-48 -9 -34 -5 -57 -10 -100 -21 -11 -3 -28 -7 -38 -9 -31 -7 -176 -56 -207
-71 -16 -7 -42 -17 -57 -20 -16 -4 -28 -11 -28 -16 0 -5 -6 -9 -12 -9 -11 0
-154 -76 -213 -113 -176 -110 -386 -314 -500 -487 -17 -25 -33 -47 -36 -50
-20 -16 -137 -264 -169 -357 -34 -97 -67 -220 -75 -279 -3 -22 -9 -57 -12 -79
-9 -55 -9 -389 0 -445 16 -92 38 -205 44 -220 4 -8 8 -19 8 -25 1 -5 4 -17 7
-25 3 -8 16 -44 28 -80 28 -82 118 -269 162 -335 56 -85 131 -185 140 -185 4
0 8 -4 8 -8 0 -5 -38 -9 -84 -10 -183 -2 -299 -23 -451 -79 -38 -14 -83 -33
-100 -42 -16 -8 -32 -15 -35 -16 -9 -1 -125 -68 -130 -76 -3 -3 -19 -15 -37
-26 -82 -50 -293 -260 -293 -292 0 -6 -4 -11 -8 -11 -4 0 -24 -27 -43 -60 -18
-33 -37 -60 -41 -60 -5 0 -8 -8 -8 -19 0 -10 -7 -24 -15 -31 -8 -6 -14 -15
-13 -18 1 -4 -7 -27 -18 -52 -23 -50 -61 -161 -68 -200 -3 -14 -8 -36 -11 -50
-13 -57 -20 -142 -19 -260 1 -151 6 -200 34 -305 6 -22 13 -51 16 -64 3 -13
12 -37 20 -52 8 -16 15 -32 15 -36 8 -60 128 -266 196 -338 7 -8 13 -16 13
-20 0 -15 178 -178 244 -224 107 -74 270 -157 346 -176 8 -2 42 -12 75 -21 65
-18 80 -20 170 -31 79 -10 4438 -9 4490 1 52 10 113 25 145 36 40 13 55 17 60
17 6 -1 149 73 165 85 165 122 250 216 327 363 32 62 74 179 82 228 3 20 10
55 15 76 9 42 7 276 -3 326 -42 201 -128 365 -261 500 -91 92 -143 130 -255
186 -209 105 -483 126 -698 53 -23 -8 -46 -14 -51 -14 -4 0 -8 30 -8 68 0 74
-12 253 -18 262 -2 3 -6 26 -9 51 -6 44 -49 221 -66 269 -60 171 -127 308
-218 445 -36 55 -68 102 -71 105 -3 3 -24 28 -46 55 -22 28 -86 96 -143 153
-101 100 -103 104 -98 140 14 94 17 127 17 229 1 141 -8 252 -28 348 -3 17 -7
39 -9 50 -16 103 -85 301 -156 445 -34 69 -64 127 -68 130 -3 3 -17 23 -30 45
-13 22 -29 45 -35 51 -5 6 -17 22 -25 34 -61 92 -208 244 -320 330 -95 72
-216 150 -234 150 -8 0 -16 4 -18 8 -8 20 -223 108 -343 141 -124 34 -146 40
-200 46 -27 4 -61 9 -75 11 -27 6 -297 14 -302 9z m187 -659 c117 -12 173 -25
285 -68 182 -70 302 -144 418 -257 39 -39 72 -75 72 -79 0 -4 10 -19 23 -33
62 -71 149 -250 182 -379 20 -76 45 -222 39 -231 -2 -3 -52 6 -111 22 -59 15
-133 30 -163 34 -30 4 -57 8 -60 10 -12 8 -192 18 -300 18 -117 0 -248 -8
-291 -17 -13 -3 -40 -8 -59 -11 -297 -43 -636 -196 -880 -394 -36 -30 -108
-97 -161 -151 l-96 -98 -26 56 c-43 94 -73 187 -92 282 -12 59 -14 322 -4 375
16 75 60 217 76 242 8 12 15 26 15 30 0 19 74 146 103 179 5 7 19 25 30 40 52
75 217 222 300 268 17 9 37 21 45 26 22 14 137 65 190 84 82 28 174 46 270 52
52 4 96 7 98 9 1 1 12 1 25 -1 12 -2 45 -6 72 -8z m520 -1611 c33 -4 80 -11
105 -17 25 -5 56 -12 69 -14 42 -8 185 -61 231 -85 25 -13 48 -23 52 -24 3 0
48 -28 100 -61 106 -70 194 -145 258 -222 25 -29 52 -61 61 -70 41 -44 140
-216 181 -317 20 -50 37 -105 31 -105 -3 0 -1 -6 5 -13 6 -7 20 -62 31 -122
17 -95 20 -160 21 -484 0 -207 3 -378 6 -380 3 -3 233 -6 512 -6 279 -1 518
-5 532 -9 49 -14 105 -41 129 -61 158 -135 132 -443 -45 -529 -22 -10 -48 -23
-59 -30 -26 -14 -4342 -18 -4395 -3 -19 5 -44 11 -55 12 -11 1 -37 9 -59 18
-21 9 -42 17 -46 17 -4 0 -41 22 -81 48 -185 121 -293 317 -293 532 0 52 6
120 13 150 16 69 81 206 115 243 14 15 29 33 33 39 7 12 58 57 111 100 32 26
163 86 201 93 19 3 39 9 45 13 6 4 179 7 384 8 205 1 374 3 376 5 2 2 6 40 10
84 5 76 8 95 23 175 15 83 61 216 101 295 41 83 131 225 141 225 5 0 12 9 17
20 13 28 123 140 191 194 32 25 63 50 68 54 75 60 341 182 432 198 6 1 33 7
60 12 27 6 82 14 123 18 41 3 76 7 77 8 4 3 133 -3 188 -9z"/>
<path d="M5474 4745 c39 -103 91 -332 123 -550 7 -52 7 -325 0 -502 -3 -57 -3
-103 -1 -103 6 0 57 53 134 139 36 40 81 90 100 110 19 20 67 72 105 115 39
44 88 99 110 122 22 23 65 71 95 105 30 34 63 69 73 78 9 8 17 21 17 27 0 6
-8 14 -17 18 -10 3 -110 64 -223 135 -113 71 -248 156 -300 188 -52 31 -113
70 -134 85 -21 15 -45 28 -53 28 -7 0 -13 5 -13 10 0 6 -5 10 -11 10 -6 0 -9
-7 -5 -15z"/>
<path d="M738 4315 c-13 -15 -41 -47 -63 -70 -22 -24 -68 -74 -101 -112 -34
-37 -72 -80 -85 -94 -13 -14 -60 -65 -104 -114 -44 -48 -95 -104 -114 -124
-82 -88 -133 -150 -130 -158 5 -11 67 -53 79 -53 6 0 10 -4 10 -10 0 -5 4 -10
9 -10 5 0 69 -38 143 -85 73 -47 141 -88 151 -92 9 -3 17 -9 17 -14 0 -5 4 -9
9 -9 9 0 288 -171 308 -189 20 -18 35 -13 24 8 -21 37 -74 250 -97 386 -3 17
-9 55 -15 85 -5 30 -9 194 -8 363 0 170 -2 311 -4 314 -3 3 -16 -7 -29 -22z"/>
</g>
</svg>
