<?xml version="1.0" encoding="utf-8"?>
<svg version="1.1" id="Layer_1" xmlns="http://www.w3.org/2000/svg" xmlns:xlink="http://www.w3.org/1999/xlink" x="0px" y="0px"
	 viewBox="0 0 21.9 21.2" style="enable-background:new 0 0 21.9 21.2;" xml:space="preserve">
<style type="text/css">
	.st0{fill:#62A9E1;}
</style>
<path class="st0" d="M12.1,4.1c2.4,1,3.6,3.6,3.2,6c1.3,1.1,2.1,2.7,2.1,4.5v0.2c0.3-0.1,0.6-0.2,1-0.2c1.7,0,3,1.3,3,3s-1.3,3-3,3
	h-13c-2.2,0-4-1.8-4-4s1.8-4,4-4h0.3C4.4,11.1,4,8.9,4.9,6.9C6.1,4.2,9.4,2.9,12.1,4.1 M11.3,6C9.6,5.2,7.5,6,6.7,7.7
	c-0.5,1-0.4,2.2,0.1,3.1c1.1-1.3,2.7-2.1,4.6-2.1c0.7,0,1.4,0.1,2,0.3C13.3,7.7,12.6,6.5,11.3,6 M13,2.3c-0.6-0.2-1.1-0.4-1.7-0.5
	l2.5-1.3l0.9,2.9C14.2,2.9,13.6,2.6,13,2.3 M5.5,3.1C5,3.4,4.6,3.8,4.2,4.3l0.1-2.8l3,0.7C6.7,2.4,6.1,2.7,5.5,3.1 M17.4,8.4
	c-0.1-0.6-0.2-1.2-0.4-1.7l2.4,1.5l-2,2.2C17.4,9.7,17.5,9.1,17.4,8.4 M2.4,10c0.1,0.6,0.2,1.2,0.4,1.7l-2.4-1.5l2-2.2
	C2.4,8.6,2.4,9.3,2.4,10 M18.4,16.7h-3v-2c0-2.2-1.8-4-4-4s-4,1.8-4,4h-2c-1.1,0-2,0.9-2,2s0.9,2,2,2h13c0.6,0,1-0.4,1-1
	S19,16.7,18.4,16.7z"/>
</svg>
